<?xml version="1.0" standalone="no"?>
<!DOCTYPE svg PUBLIC "-//W3C//DTD SVG 20010904//EN"
 "http://www.w3.org/TR/2001/REC-SVG-20010904/DTD/svg10.dtd">
<svg version="1.0" xmlns="http://www.w3.org/2000/svg"
 width="260.000000pt" height="260.000000pt" viewBox="0 0 260.000000 260.000000"
 preserveAspectRatio="xMidYMid meet">
<metadata>
Created by potrace 1.14, written by Peter Selinger 2001-2017
</metadata>
<g transform="translate(0.000000,260.000000) scale(0.100000,-0.100000)"
fill="#000000" stroke="none">
<path d="M231 2558 c-107 -102 -124 -253 -46 -410 26 -53 33 -81 34 -130 1
-92 18 -159 56 -222 41 -68 73 -97 145 -132 30 -14 57 -30 60 -34 6 -9 4 -233
-3 -271 -2 -15 -20 -69 -40 -120 -58 -153 -68 -239 -43 -344 3 -11 12 -47 20
-80 8 -33 31 -107 52 -164 37 -104 37 -105 31 -224 -3 -66 -8 -121 -10 -124
-3 -2 -17 -6 -33 -9 -40 -6 -80 -53 -98 -115 -17 -56 -21 -146 -8 -166 6 -9
183 -12 777 -9 424 1 781 5 795 9 14 3 46 10 72 16 172 40 308 141 373 277 83
175 55 435 -70 660 -80 142 -212 295 -340 394 -104 79 -160 141 -194 213 -53
111 -35 226 54 343 51 67 95 97 144 97 50 0 114 -37 161 -93 19 -23 51 -50 70
-59 91 -46 200 22 200 125 0 50 -34 104 -122 196 -225 234 -470 231 -700 -8
-75 -77 -138 -154 -138 -168 0 -5 -6 -17 -14 -25 -8 -9 -26 -51 -41 -94 -27
-80 -36 -194 -21 -267 21 -103 89 -246 161 -340 42 -55 60 -73 255 -265 200
-196 279 -370 226 -496 -33 -78 -134 -128 -269 -132 -76 -2 -82 0 -83 18 -8
121 -54 278 -116 395 -64 122 -151 207 -368 360 -141 100 -163 127 -190 245
-18 78 -25 186 -15 228 5 17 23 35 49 51 124 73 195 214 184 367 -5 58 -1 80
19 130 51 126 22 266 -79 375 -33 36 -42 41 -53 30 -13 -13 -26 -28 -137 -157
l-48 -55 -67 12 c-83 14 -220 10 -290 -9 l-52 -14 -68 81 c-37 45 -84 98 -103
118 l-35 38 -44 -42z"/>
</g>
</svg>
